<?xml version="1.0" encoding="UTF-8" standalone="no"?>
<!DOCTYPE svg PUBLIC "-//W3C//DTD SVG 1.1//EN" "http://www.w3.org/Graphics/SVG/1.1/DTD/svg11.dtd">
<svg width="100%" height="100%" viewBox="0 0 133 48" version="1.1" xmlns="http://www.w3.org/2000/svg" xmlns:xlink="http://www.w3.org/1999/xlink" xml:space="preserve" xmlns:serif="http://www.serif.com/" style="fill-rule:evenodd;clip-rule:evenodd;stroke-linejoin:round;stroke-miterlimit:2;">
    <g>
        <path d="M1.693,0.374L3.431,1.824L3.431,8.359L12.827,8.359L14.105,9.971L12.823,11.505L3.431,11.505L3.431,17.753L1.693,19.199L0,17.753L0,1.82L1.693,0.374ZM6.775,16.843L13.939,16.843L15.138,18.372L13.86,19.989L6.775,19.989L5.617,18.497L6.775,16.843ZM7.024,0L13.856,0L15.134,1.612L13.856,3.145L7.107,3.145L5.742,1.658L7.024,0ZM45.103,3.104L46.634,4.757L45.103,6.415L21.967,6.415L20.478,4.757L21.967,3.104L45.103,3.104ZM19.237,9.971L20.681,8.729L22.129,9.971L22.129,11.795C22.129,14.857 22.954,17.379 26.634,17.379L27.377,17.379C30.683,17.379 32.5,15.144 32.5,11.667L32.5,9.93L33.906,8.688L35.354,9.888L35.354,11.791C35.354,14.895 36.263,17.213 39.818,17.213L40.436,17.213C43.909,17.213 44.527,14.563 44.568,11.667L44.568,9.805L45.975,8.646L47.46,9.847L47.46,11.708C47.418,15.722 46.344,20.317 40.561,20.317L39.943,20.317C36.512,20.317 34.653,18.784 33.911,16.881C33.044,18.825 30.729,20.525 27.588,20.525L26.842,20.525C20.892,20.525 19.283,16.927 19.241,11.874L19.241,9.971L19.237,9.971ZM31.056,39.931L30.231,37.696L32.38,37.077L39.943,40.509L39.943,33.433L41.474,32.15L43.042,33.433L43.042,42.001L45.85,43.284L46.634,45.353L44.444,46.139L31.056,39.931ZM44.527,24.825L46.593,25.776L45.933,27.887L27.335,36.537L25.103,35.669L26.012,33.517L44.527,24.825ZM17.694,36.62L19.511,38.112C19.345,43.368 14.84,46.139 9.513,46.139L8.973,46.139C6.327,46.139 3.232,45.146 1.249,43.243L1.452,41.132L3.394,40.883C4.841,42.125 6.866,42.994 8.766,42.994L9.347,42.994C12.944,42.994 15.711,41.506 16.001,37.987L17.694,36.62ZM15.997,33.184C15.831,29.54 13.105,28.095 9.343,28.095L8.762,28.095C6.53,28.095 4.837,28.963 3.389,30.205L1.452,29.956L1.245,27.845C3.228,25.901 5.995,24.991 8.89,24.991L9.467,24.991C14.84,24.991 19.345,27.725 19.507,33.059L17.69,34.509L15.997,33.184Z" style="fill:rgb(34,5,61);fill-rule:nonzero;"/>
        <path d="M64.793,6.282L60.487,6.282C60.583,7.121 61.167,7.74 62.026,7.74C62.549,7.74 63.03,7.533 63.312,7.109L64.681,7.146C64.196,8.227 63.192,8.796 62.026,8.796C60.4,8.796 59.201,7.583 59.201,5.908C59.201,4.234 60.375,3.029 61.989,3.029C63.457,3.029 64.789,4.014 64.789,6.27L64.789,6.282L64.793,6.282ZM60.487,5.397L63.432,5.397C63.37,4.695 62.802,4.084 62.001,4.084C61.192,4.084 60.632,4.62 60.487,5.397Z" style="fill:rgb(34,5,61);fill-rule:nonzero;"/>
        <path d="M69.24,4.653C68.829,4.255 68.223,4.059 67.808,4.059C67.335,4.059 67.095,4.313 67.095,4.57C67.095,4.874 67.228,5.019 67.605,5.152L68.551,5.48C69.567,5.833 69.995,6.39 69.995,7.072C69.995,7.944 69.327,8.796 67.958,8.796C67.062,8.796 66.174,8.43 65.655,7.936L66.369,7.001C66.78,7.412 67.423,7.715 67.933,7.715C68.418,7.715 68.733,7.508 68.733,7.18C68.733,6.826 68.563,6.681 67.958,6.477L67.049,6.162C66.286,5.896 65.863,5.322 65.863,4.645C65.863,3.843 66.555,3.029 67.862,3.029C68.505,3.029 69.364,3.282 69.937,3.818L69.24,4.653Z" style="fill:rgb(34,5,61);fill-rule:nonzero;"/>
        <path d="M73.911,7.736C74.542,7.736 75.027,7.433 75.305,6.934L76.346,7.47C75.911,8.285 74.952,8.791 73.911,8.791C72.285,8.791 71.015,7.591 71.015,5.912C71.015,4.225 72.289,3.025 73.911,3.025C74.952,3.025 75.911,3.536 76.346,4.346L75.305,4.882C75.027,4.383 74.542,4.08 73.911,4.08C72.915,4.08 72.239,4.869 72.239,5.912C72.239,6.955 72.915,7.736 73.911,7.736Z" style="fill:rgb(34,5,61);fill-rule:nonzero;"/>
        <path d="M80.143,3.029C81.757,3.029 83.064,4.23 83.064,5.908C83.064,7.583 81.753,8.796 80.143,8.796C78.529,8.796 77.235,7.583 77.235,5.908C77.235,4.23 78.529,3.029 80.143,3.029ZM80.143,4.084C79.148,4.084 78.459,4.861 78.459,5.904C78.459,6.947 79.152,7.736 80.143,7.736C81.139,7.736 81.828,6.947 81.828,5.904C81.828,4.861 81.139,4.084 80.143,4.084Z" style="fill:rgb(34,5,61);fill-rule:nonzero;"/>
        <rect x="84.496" y="0.15" width="1.198" height="8.496" style="fill:rgb(34,5,61);fill-rule:nonzero;"/>
        <path d="M90.605,4.969C90.605,4.388 90.169,4.084 89.464,4.084C88.871,4.084 88.336,4.338 87.925,4.666L87.357,3.768C87.817,3.37 88.593,3.029 89.551,3.029C90.995,3.029 91.816,3.831 91.816,4.994L91.816,8.65L90.605,8.65L90.605,8.081C90.29,8.592 89.609,8.796 89.041,8.796C87.792,8.796 87.066,8.081 87.066,7.072C87.066,6.004 87.817,5.397 89.041,5.397L90.215,5.397C90.493,5.397 90.605,5.277 90.605,5.056L90.605,4.969ZM90.605,6.648L90.605,6.174C90.497,6.257 90.302,6.295 90.024,6.295L89.298,6.295C88.655,6.295 88.327,6.573 88.327,7.034C88.327,7.458 88.643,7.848 89.298,7.848C89.974,7.848 90.605,7.495 90.605,6.648Z" style="fill:rgb(34,5,61);fill-rule:nonzero;"/>
        <path d="M60.77,21.061L59.571,21.061L59.571,12.564L60.77,12.564L60.77,16.399C61.06,15.851 61.824,15.439 62.624,15.439C64.213,15.439 65.362,16.64 65.362,18.314C65.362,19.989 64.188,21.206 62.6,21.206C61.811,21.206 61.073,20.82 60.77,20.271L60.77,21.061ZM60.733,18.318C60.733,19.361 61.425,20.163 62.429,20.163C63.425,20.163 64.126,19.361 64.126,18.318C64.126,17.276 63.425,16.486 62.429,16.486C61.421,16.486 60.733,17.276 60.733,18.318Z" style="fill:rgb(34,5,61);fill-rule:nonzero;"/>
        <path d="M69.882,16.657L69.251,16.657C68.475,16.657 67.965,17.105 67.965,18.343L67.965,21.061L66.766,21.061L66.766,15.585L67.94,15.585L67.94,16.457C68.147,15.851 68.691,15.485 69.454,15.485C69.587,15.485 69.732,15.497 69.877,15.522L69.877,16.657L69.882,16.657Z" style="fill:rgb(34,5,61);fill-rule:nonzero;"/>
        <path d="M72.577,21.061L71.366,21.061L71.366,16.582L70.54,16.582L70.54,15.585L72.577,15.585L72.577,21.061ZM71.901,12.759C72.374,12.759 72.76,13.15 72.76,13.624C72.76,14.097 72.374,14.475 71.901,14.475C71.428,14.475 71.05,14.097 71.05,13.624C71.05,13.146 71.428,12.759 71.901,12.759Z" style="fill:rgb(34,5,61);fill-rule:nonzero;"/>
        <path d="M75.887,13.378L75.887,15.589L77.173,15.589L77.173,16.586L75.887,16.586L75.887,19.656C75.887,20.034 76.165,20.105 76.443,20.105C76.866,20.105 77.182,20.055 77.182,20.055L77.182,21.065C77.182,21.065 76.588,21.127 76.14,21.127C75.485,21.127 74.672,20.994 74.672,19.926L74.672,16.586L73.776,16.586L73.776,15.589L74.676,15.589L74.676,13.378L75.887,13.378Z" style="fill:rgb(34,5,61);fill-rule:nonzero;"/>
        <path d="M81.631,17.384C81.631,16.802 81.196,16.499 80.49,16.499C79.897,16.499 79.362,16.752 78.951,17.08L78.383,16.183C78.843,15.784 79.619,15.443 80.578,15.443C82.021,15.443 82.843,16.245 82.843,17.409L82.843,21.065L81.631,21.065L81.631,20.496C81.316,21.007 80.636,21.21 80.067,21.21C78.819,21.21 78.093,20.496 78.093,19.486C78.093,18.418 78.843,17.812 80.067,17.812L81.241,17.812C81.519,17.812 81.631,17.691 81.631,17.471L81.631,17.384ZM79.922,12.564L81.353,12.564L82.507,14.579L81.27,14.579L80.64,13.449L80.009,14.579L78.785,14.579L79.922,12.564ZM81.631,19.058L81.631,18.584C81.523,18.667 81.328,18.705 81.05,18.705L80.324,18.705C79.681,18.705 79.354,18.983 79.354,19.444C79.354,19.868 79.669,20.259 80.324,20.259C81.001,20.263 81.631,19.91 81.631,19.058Z" style="fill:rgb(34,5,61);fill-rule:nonzero;"/>
        <path d="M85.729,15.9C85.729,16.058 85.729,16.154 85.717,16.266C86.177,15.73 86.808,15.439 87.501,15.439C88.787,15.439 89.537,16.241 89.537,17.492L89.537,21.061L88.326,21.061L88.326,17.662C88.326,16.885 87.853,16.519 87.247,16.519C86.725,16.519 86.219,16.785 85.758,17.321L85.758,21.061L84.559,21.061L84.559,15.585L85.737,15.585L85.737,15.9L85.729,15.9Z" style="fill:rgb(34,5,61);fill-rule:nonzero;"/>
        <path d="M92.704,21.061L91.493,21.061L91.493,16.582L90.667,16.582L90.667,15.585L92.704,15.585L92.704,21.061ZM92.024,12.759C92.497,12.759 92.882,13.15 92.882,13.624C92.882,14.097 92.497,14.475 92.024,14.475C91.551,14.475 91.173,14.097 91.173,13.624C91.178,13.146 91.551,12.759 92.024,12.759Z" style="fill:rgb(34,5,61);fill-rule:nonzero;"/>
        <path d="M96.998,20.151C97.628,20.151 98.114,19.847 98.392,19.349L99.433,19.885C98.997,20.699 98.039,21.206 96.998,21.206C95.372,21.206 94.102,20.005 94.102,18.327C94.102,16.64 95.376,15.439 96.998,15.439C98.039,15.439 98.997,15.95 99.433,16.76L98.392,17.296C98.114,16.798 97.628,16.494 96.998,16.494C96.002,16.494 95.326,17.284 95.326,18.327C95.326,19.37 96.002,20.151 96.998,20.151Z" style="fill:rgb(34,5,61);fill-rule:nonzero;"/>
        <path d="M103.861,17.384C103.861,16.802 103.425,16.499 102.72,16.499C102.127,16.499 101.591,16.752 101.181,17.08L100.612,16.183C101.073,15.784 101.849,15.443 102.807,15.443C104.251,15.443 105.072,16.245 105.072,17.409L105.072,21.065L103.861,21.065L103.861,20.496C103.545,21.007 102.865,21.21 102.297,21.21C101.048,21.21 100.322,20.496 100.322,19.486C100.322,18.418 101.073,17.812 102.297,17.812L103.471,17.812C103.749,17.812 103.861,17.691 103.861,17.471L103.861,17.384ZM103.861,19.058L103.861,18.584C103.753,18.667 103.558,18.705 103.28,18.705L102.554,18.705C101.911,18.705 101.583,18.983 101.583,19.444C101.583,19.868 101.898,20.259 102.554,20.259C103.23,20.263 103.861,19.91 103.861,19.058Z" style="fill:rgb(34,5,61);fill-rule:nonzero;"/>
        <path d="M113.851,20.259C113.56,20.807 112.822,21.206 112.021,21.206C110.433,21.206 109.271,19.993 109.271,18.314C109.271,16.64 110.412,15.439 111.997,15.439C112.81,15.439 113.56,15.851 113.864,16.399C113.851,16.025 113.851,15.572 113.851,15.148L113.851,12.56L115.063,12.56L115.063,21.057L113.851,21.057L113.851,20.259ZM110.503,18.318C110.503,19.361 111.196,20.163 112.2,20.163C113.195,20.163 113.897,19.361 113.897,18.318C113.897,17.276 113.191,16.486 112.2,16.486C111.196,16.486 110.503,17.276 110.503,18.318Z" style="fill:rgb(34,5,61);fill-rule:nonzero;"/>
        <path d="M122.061,18.697L117.759,18.697C117.854,19.536 118.439,20.155 119.298,20.155C119.821,20.155 120.306,19.947 120.584,19.523L121.953,19.561C121.467,20.641 120.464,21.21 119.298,21.21C117.671,21.21 116.473,19.997 116.473,18.323C116.473,16.648 117.651,15.443 119.261,15.443C120.73,15.443 122.061,16.428 122.061,18.684L122.061,18.697ZM117.754,17.807L120.7,17.807C120.638,17.105 120.07,16.494 119.269,16.494C118.46,16.499 117.9,17.03 117.754,17.807Z" style="fill:rgb(34,5,61);fill-rule:nonzero;"/>
        <path d="M62.669,29.798C62.669,29.216 62.233,28.913 61.528,28.913C60.935,28.913 60.4,29.166 59.989,29.494L59.42,28.597C59.881,28.198 60.657,27.858 61.615,27.858C63.059,27.858 63.88,28.659 63.88,29.823L63.88,33.479L62.669,33.479L62.669,32.906C62.354,33.417 61.673,33.62 61.105,33.62C59.856,33.62 59.13,32.906 59.13,31.896C59.13,30.828 59.881,30.222 61.105,30.222L62.279,30.222C62.557,30.222 62.669,30.101 62.669,29.881L62.669,29.798ZM62.669,31.472L62.669,30.999C62.561,31.081 62.366,31.119 62.088,31.119L61.362,31.119C60.719,31.119 60.391,31.397 60.391,31.859C60.391,32.282 60.707,32.673 61.362,32.673C62.038,32.673 62.669,32.32 62.669,31.472Z" style="fill:rgb(34,5,61);fill-rule:nonzero;"/>
        <path d="M68.709,29.067L68.078,29.067C67.302,29.067 66.792,29.516 66.792,30.754L66.792,33.471L65.593,33.471L65.593,27.999L66.767,27.999L66.767,28.872C66.974,28.265 67.518,27.899 68.281,27.899C68.414,27.899 68.559,27.912 68.704,27.937L68.704,29.067L68.709,29.067Z" style="fill:rgb(34,5,61);fill-rule:nonzero;"/>
        <path d="M71.485,25.789L71.485,27.999L72.771,27.999L72.771,28.996L71.485,28.996L71.485,32.066C71.485,32.444 71.762,32.515 72.04,32.515C72.464,32.515 72.779,32.465 72.779,32.465L72.779,33.475C72.779,33.475 72.186,33.537 71.738,33.537C71.082,33.537 70.269,33.404 70.269,32.336L70.269,29L69.373,29L69.373,28.003L70.269,28.003L70.269,25.793L71.485,25.793L71.485,25.789Z" style="fill:rgb(34,5,61);fill-rule:nonzero;"/>
        <path d="M79.356,31.107L75.053,31.107C75.149,31.946 75.734,32.565 76.593,32.565C77.115,32.565 77.601,32.357 77.879,31.934L79.248,31.971C78.762,33.051 77.758,33.621 76.593,33.621C74.966,33.621 73.767,32.407 73.767,30.733C73.767,29.058 74.946,27.854 76.555,27.854C78.024,27.854 79.356,28.838 79.356,31.094L79.356,31.107ZM75.053,30.222L77.999,30.222C77.937,29.52 77.368,28.909 76.568,28.909C75.754,28.909 75.199,29.445 75.053,30.222Z" style="fill:rgb(34,5,61);fill-rule:nonzero;"/>
        <path d="M83.806,29.482C83.395,29.083 82.789,28.888 82.374,28.888C81.901,28.888 81.661,29.141 81.661,29.399C81.661,29.702 81.794,29.848 82.171,29.981L83.117,30.309C84.133,30.662 84.561,31.219 84.561,31.9C84.561,32.773 83.893,33.624 82.524,33.624C81.628,33.624 80.744,33.259 80.221,32.764L80.935,31.83C81.345,32.241 81.989,32.544 82.499,32.544C82.984,32.544 83.299,32.336 83.299,32.008C83.299,31.655 83.129,31.51 82.524,31.306L81.615,30.99C80.852,30.724 80.429,30.151 80.429,29.474C80.429,28.672 81.117,27.858 82.428,27.858C83.071,27.858 83.93,28.111 84.502,28.647L83.806,29.482Z" style="fill:rgb(34,5,61);fill-rule:nonzero;"/>
        <path d="M91.322,32.565C91.952,32.565 92.438,32.262 92.716,31.763L93.757,32.299C93.321,33.114 92.363,33.621 91.322,33.621C89.696,33.621 88.426,32.42 88.426,30.741C88.426,29.054 89.7,27.85 91.322,27.85C92.363,27.85 93.321,28.36 93.757,29.175L92.716,29.711C92.438,29.212 91.952,28.909 91.322,28.909C90.326,28.909 89.65,29.698 89.65,30.741C89.65,31.784 90.326,32.565 91.322,32.565Z" style="fill:rgb(34,5,61);fill-rule:nonzero;"/>
        <path d="M98.198,29.067L97.568,29.067C96.792,29.067 96.281,29.516 96.281,30.754L96.281,33.471L95.083,33.471L95.083,27.999L96.257,27.999L96.257,28.872C96.464,28.265 97.007,27.899 97.771,27.899C97.904,27.899 98.049,27.912 98.194,27.937L98.194,29.067L98.198,29.067Z" style="fill:rgb(34,5,61);fill-rule:nonzero;"/>
        <path d="M100.888,33.475L99.677,33.475L99.677,28.996L98.851,28.996L98.851,27.999L100.888,27.999L100.888,33.475ZM100.208,25.17C100.681,25.17 101.066,25.56 101.066,26.034C101.066,26.508 100.681,26.881 100.208,26.881C99.735,26.881 99.357,26.508 99.357,26.034C99.361,25.56 99.735,25.17 100.208,25.17Z" style="fill:rgb(34,5,61);fill-rule:nonzero;"/>
        <path d="M105.765,29.798C105.765,29.216 105.33,28.913 104.624,28.913C104.031,28.913 103.496,29.166 103.085,29.494L102.517,28.597C102.977,28.198 103.753,27.858 104.712,27.858C106.155,27.858 106.977,28.659 106.977,29.823L106.977,33.479L105.765,33.479L105.765,32.906C105.45,33.417 104.77,33.62 104.201,33.62C102.953,33.62 102.227,32.906 102.227,31.896C102.227,30.828 102.977,30.222 104.201,30.222L105.375,30.222C105.653,30.222 105.765,30.101 105.765,29.881L105.765,29.798ZM105.765,31.472L105.765,30.999C105.657,31.081 105.462,31.119 105.185,31.119L104.459,31.119C103.815,31.119 103.488,31.397 103.488,31.859C103.488,32.282 103.803,32.673 104.459,32.673C105.135,32.673 105.765,32.32 105.765,31.472Z" style="fill:rgb(34,5,61);fill-rule:nonzero;"/>
        <path d="M110.225,25.789L110.225,27.999L111.511,27.999L111.511,28.996L110.225,28.996L110.225,32.066C110.225,32.444 110.503,32.515 110.781,32.515C111.205,32.515 111.52,32.465 111.52,32.465L111.52,33.475C111.52,33.475 110.927,33.537 110.479,33.537C109.823,33.537 109.01,33.404 109.01,32.336L109.01,29L108.114,29L108.114,28.003L109.01,28.003L109.01,25.793L110.225,25.793L110.225,25.789Z" style="fill:rgb(34,5,61);fill-rule:nonzero;"/>
        <path d="M114.323,33.475L113.112,33.475L113.112,28.996L112.286,28.996L112.286,27.999L114.323,27.999L114.323,33.475ZM113.643,25.17C114.116,25.17 114.502,25.56 114.502,26.034C114.502,26.508 114.116,26.881 113.643,26.881C113.17,26.881 112.792,26.508 112.792,26.034C112.797,25.56 113.17,25.17 113.643,25.17Z" style="fill:rgb(34,5,61);fill-rule:nonzero;"/>
        <path d="M118.288,32.32L119.753,27.999L121.039,27.999L119.027,33.475L117.5,33.475L115.559,27.999L116.906,27.999L118.288,32.32Z" style="fill:rgb(34,5,61);fill-rule:nonzero;"/>
        <path d="M125.213,29.798C125.213,29.216 124.778,28.913 124.072,28.913C123.479,28.913 122.944,29.166 122.534,29.494L121.965,28.597C122.425,28.198 123.201,27.858 124.159,27.858C125.603,27.858 126.425,28.659 126.425,29.823L126.425,33.479L125.213,33.479L125.213,32.906C124.898,33.417 124.218,33.62 123.649,33.62C122.401,33.62 121.675,32.906 121.675,31.896C121.675,30.828 122.425,30.222 123.649,30.222L124.824,30.222C125.101,30.222 125.213,30.101 125.213,29.881L125.213,29.798ZM125.213,31.472L125.213,30.999C125.106,31.081 124.911,31.119 124.632,31.119L123.906,31.119C123.263,31.119 122.936,31.397 122.936,31.859C122.936,32.282 123.251,32.673 123.906,32.673C124.583,32.673 125.213,32.32 125.213,31.472Z" style="fill:rgb(34,5,61);fill-rule:nonzero;"/>
        <path d="M131.248,29.482C130.837,29.083 130.231,28.888 129.816,28.888C129.343,28.888 129.103,29.141 129.103,29.399C129.103,29.702 129.236,29.848 129.612,29.981L130.559,30.309C131.575,30.662 132.002,31.219 132.002,31.9C132.002,32.773 131.335,33.624 129.966,33.624C129.07,33.624 128.186,33.259 127.663,32.764L128.377,31.83C128.787,32.241 129.43,32.544 129.94,32.544C130.426,32.544 130.741,32.336 130.741,32.008C130.741,31.655 130.572,31.51 129.966,31.306L129.057,30.99C128.294,30.724 127.871,30.151 127.871,29.474C127.871,28.672 128.56,27.858 129.87,27.858C130.513,27.858 131.372,28.111 131.945,28.647L131.248,29.482Z" style="fill:rgb(34,5,61);fill-rule:nonzero;"/>
        <path d="M66.585,45.865L64.959,45.865L64.051,44.868C63.528,45.595 62.765,46.01 61.711,46.01C60.209,46.01 59.238,44.942 59.238,43.692C59.238,42.707 59.773,41.897 60.707,41.141C60.138,40.439 59.968,39.94 59.968,39.346C59.968,37.95 61.109,37.248 62.234,37.248C63.3,37.248 64.353,37.879 64.353,39.142C64.353,39.458 64.279,39.836 64.051,40.185L62.997,39.99C63.117,39.712 63.192,39.466 63.192,39.275C63.192,38.706 62.769,38.315 62.234,38.315C61.553,38.315 61.192,38.789 61.192,39.338C61.192,39.774 61.4,40.21 61.918,40.808C62.657,41.643 63.798,42.873 63.93,43.019C64.271,42.425 64.548,41.756 64.706,41.307L66.075,41.307C65.71,42.279 65.212,43.176 64.777,43.891L66.581,45.823L66.581,45.865L66.585,45.865ZM61.387,41.992C60.757,42.649 60.516,43.085 60.516,43.679C60.516,44.444 61.147,44.905 61.79,44.905C62.337,44.905 62.93,44.614 63.246,44.032L61.387,41.992Z" style="fill:rgb(34,5,61);fill-rule:nonzero;"/>
        <path d="M72.153,38.203L72.153,40.414L73.439,40.414L73.439,41.411L72.153,41.411L72.153,44.481C72.153,44.859 72.431,44.93 72.709,44.93C73.132,44.93 73.448,44.88 73.448,44.88L73.448,45.889C73.448,45.889 72.854,45.952 72.406,45.952C71.751,45.952 70.938,45.819 70.938,44.751L70.938,41.415L70.042,41.415L70.042,40.418L70.942,40.418L70.942,38.207L72.153,38.207L72.153,38.203Z" style="fill:rgb(34,5,61);fill-rule:nonzero;"/>
        <path d="M80.021,43.521L75.719,43.521C75.815,44.361 76.4,44.98 77.259,44.98C77.781,44.98 78.267,44.772 78.545,44.348L79.914,44.386C79.428,45.466 78.424,46.035 77.259,46.035C75.632,46.035 74.433,44.822 74.433,43.147C74.433,41.473 75.612,40.268 77.221,40.268C78.69,40.268 80.021,41.253 80.021,43.509L80.021,43.521ZM75.715,42.636L78.661,42.636C78.599,41.934 78.03,41.323 77.229,41.323C76.421,41.323 75.86,41.859 75.715,42.636Z" style="fill:rgb(34,5,61);fill-rule:nonzero;"/>
        <path d="M83.877,44.979C84.508,44.979 84.993,44.676 85.271,44.178L86.312,44.714C85.877,45.528 84.918,46.035 83.877,46.035C82.251,46.035 80.981,44.834 80.981,43.156C80.981,41.469 82.255,40.264 83.877,40.264C84.918,40.264 85.877,40.775 86.312,41.589L85.271,42.125C84.993,41.627 84.508,41.323 83.877,41.323C82.882,41.323 82.205,42.113 82.205,43.156C82.205,44.198 82.886,44.979 83.877,44.979Z" style="fill:rgb(34,5,61);fill-rule:nonzero;"/>
        <path d="M88.814,40.729C88.814,40.887 88.814,40.983 88.801,41.095C89.262,40.559 89.892,40.268 90.585,40.268C91.871,40.268 92.622,41.07 92.622,42.321L92.622,45.89L91.411,45.89L91.411,42.491C91.411,41.714 90.938,41.348 90.332,41.348C89.809,41.348 89.303,41.614 88.843,42.15L88.843,45.89L87.644,45.89L87.644,40.414L88.818,40.414L88.818,40.729L88.814,40.729Z" style="fill:rgb(34,5,61);fill-rule:nonzero;"/>
        <path d="M96.86,40.268C98.474,40.268 99.781,41.469 99.781,43.147C99.781,44.822 98.47,46.035 96.86,46.035C95.247,46.035 93.952,44.822 93.952,43.147C93.952,41.469 95.251,40.268 96.86,40.268ZM96.86,41.323C95.865,41.323 95.176,42.1 95.176,43.143C95.176,44.186 95.869,44.975 96.86,44.975C97.856,44.975 98.545,44.186 98.545,43.143C98.549,42.1 97.856,41.323 96.86,41.323Z" style="fill:rgb(34,5,61);fill-rule:nonzero;"/>
        <rect x="101.217" y="37.389" width="1.198" height="8.497" style="fill:rgb(34,5,61);fill-rule:nonzero;"/>
        <path d="M106.757,40.268C108.371,40.268 109.677,41.469 109.677,43.147C109.677,44.822 108.366,46.035 106.757,46.035C105.142,46.035 103.848,44.822 103.848,43.147C103.848,41.469 105.147,40.268 106.757,40.268ZM106.757,41.323C105.761,41.323 105.072,42.1 105.072,43.143C105.072,44.186 105.765,44.975 106.757,44.975C107.752,44.975 108.441,44.186 108.441,43.143C108.445,42.1 107.752,41.323 106.757,41.323Z" style="fill:rgb(34,5,61);fill-rule:nonzero;"/>
        <path d="M116.493,40.409L116.493,46.326C116.493,47.177 116.07,48 114.771,48L112.481,48L112.481,47.003L114.589,47.003C114.917,47.003 115.282,46.916 115.282,46.421L115.282,45.071C114.991,45.607 114.252,46.006 113.452,46.006C111.875,46.006 110.71,44.817 110.71,43.143C110.71,41.456 111.851,40.264 113.439,40.264C114.24,40.264 114.991,40.675 115.294,41.224C115.294,41.103 115.282,40.97 115.282,40.8L115.282,40.409L116.493,40.409ZM113.635,44.979C114.639,44.979 115.331,44.19 115.331,43.147C115.331,42.092 114.639,41.303 113.635,41.303C112.639,41.303 111.95,42.092 111.95,43.147C111.946,44.19 112.639,44.979 113.635,44.979Z" style="fill:rgb(34,5,61);fill-rule:nonzero;"/>
        <path d="M119.72,45.89L118.508,45.89L118.508,41.407L117.683,41.407L117.683,40.409L119.72,40.409L119.72,45.89ZM119.04,37.584C119.512,37.584 119.899,37.975 119.899,38.448C119.899,38.922 119.512,39.296 119.04,39.296C118.567,39.296 118.189,38.922 118.189,38.448C118.193,37.975 118.567,37.584 119.04,37.584Z" style="fill:rgb(34,5,61);fill-rule:nonzero;"/>
        <path d="M124.594,42.208C124.594,41.627 124.159,41.323 123.453,41.323C122.86,41.323 122.325,41.577 121.914,41.905L121.347,41.008C121.806,40.609 122.582,40.268 123.54,40.268C124.984,40.268 125.806,41.07 125.806,42.233L125.806,45.89L124.594,45.89L124.594,45.32C124.279,45.831 123.599,46.035 123.031,46.035C121.782,46.035 121.056,45.32 121.056,44.311C121.056,43.243 121.806,42.636 123.031,42.636L124.205,42.636C124.483,42.636 124.594,42.516 124.594,42.296L124.594,42.208ZM124.594,43.887L124.594,43.413C124.487,43.496 124.292,43.534 124.013,43.534L123.287,43.534C122.644,43.534 122.316,43.812 122.316,44.273C122.316,44.697 122.632,45.088 123.287,45.088C123.964,45.088 124.594,44.734 124.594,43.887Z" style="fill:rgb(34,5,61);fill-rule:nonzero;"/>
    </g>
</svg>
